<svg xmlns="http://www.w3.org/2000/svg" enable-background="new 0 0 1364 960" viewBox="0 0 1364 960"><path fill="#E9E6FF" d="M189.221,765.312c0,0,109.607-161.368,230.539-168.554c120.932-7.186,214.164,91.288,277.56,88.474
	c63.397-2.814,125.93-232.918,281.354-223.832s258.191,308.942,258.191,308.942L189.221,765.312z"/><path fill="#C15EFF" d="M922.814,634.738c1.613-3.229,0.861-7.325-1.354-10.169c-2.215-2.844-5.68-4.524-9.229-5.158
	c-3.55-0.633-7.203-0.306-10.763,0.274c-5.891,0.961-11.84,2.719-16.698,6.103c1.708-8.592,4.084-17.054,7.094-25.294
	c0.274-0.749,0.561-1.494,0.845-2.239c5.705,2.553,11.41,5.106,17.114,7.658c3.806,1.703,7.73,3.435,11.898,3.594
	c4.169,0.159,8.695-1.629,10.56-5.364c1.613-3.229,0.861-7.325-1.354-10.169c-2.215-2.844-5.68-4.524-9.229-5.157
	c-3.549-0.633-7.203-0.307-10.763,0.274c-6.077,0.991-12.217,2.829-17.155,6.426c3.619-9.039,7.994-17.772,13.07-26.08
	c5.879,2.365,11.758,4.729,17.638,7.093c3.869,1.555,7.857,3.135,12.028,3.134c4.172-0.001,8.626-1.961,10.347-5.765
	c1.487-3.289,0.579-7.352-1.743-10.109c-2.323-2.756-5.849-4.303-9.42-4.799c-3.571-0.497-7.21-0.03-10.745,0.687
	c-5.66,1.148-11.349,3.039-15.992,6.393c3.809-5.924,7.972-11.62,12.482-17.034c1.336-1.602,2.71-3.17,4.104-4.72
	c6.127,2.232,12.253,4.465,18.38,6.697c3.918,1.427,7.956,2.876,12.125,2.737c4.169-0.138,8.557-2.243,10.153-6.102
	c1.378-3.336,0.337-7.367-2.075-10.045c-2.412-2.679-5.988-4.109-9.573-4.487c-3.586-0.379-7.207,0.207-10.717,1.04
	c-5.016,1.189-10.031,2.976-14.272,5.835c4.914-5.086,10.153-9.855,15.685-14.269c6.289-0.93,12.578-1.861,18.867-2.792
	c4.127-0.611,8.37-1.26,11.975-3.367c3.604-2.107,6.465-6.046,6.034-10.196c-0.373-3.588-3.207-6.635-6.605-7.841
	c-3.397-1.206-7.224-0.759-10.561,0.615c-3.337,1.374-6.245,3.613-8.939,6.016c-4.964,4.428-9.462,9.726-11.528,16.008
	c-0.019,0.013-0.038,0.022-0.057,0.037c-5.897,4.687-11.462,9.78-16.663,15.22c2.168-4.907,2.968-10.449,3.129-15.856
	c0.107-3.606-0.049-7.272-1.144-10.708c-1.094-3.436-3.215-6.651-6.324-8.473c-3.11-1.823-7.267-2.03-10.256-0.006
	c-3.457,2.341-4.634,7.064-3.928,11.176c0.706,4.112,2.938,7.776,5.126,11.325c3.332,5.407,6.665,10.813,9.997,16.219
	c-6.166,6.845-11.773,14.192-16.762,21.942c1.1-5.54,0.505-11.417-0.744-16.974c-0.791-3.519-1.852-7.03-3.765-10.086
	c-1.912-3.056-4.766-5.642-8.231-6.634c-3.465-0.993-7.546-0.161-9.94,2.541c-2.77,3.125-2.738,7.99-1.034,11.797
	c1.704,3.807,4.776,6.8,7.777,9.695c4.569,4.406,9.138,8.811,13.706,13.217c-0.15,0.248-0.307,0.492-0.457,0.74
	c-4.911,8.144-9.153,16.683-12.689,25.504c0.431-6.314-1.477-12.675-4.104-18.479c-1.487-3.285-3.237-6.507-5.728-9.111
	c-2.492-2.604-5.811-4.558-9.406-4.828c-3.596-0.27-7.425,1.372-9.223,4.501c-2.08,3.62-1.065,8.377,1.375,11.759
	c2.44,3.381,6.055,5.69,9.581,7.915c5.54,3.497,11.08,6.994,16.62,10.491c-0.048,0.124-0.094,0.248-0.141,0.372l-0.181,0.04
	c0.047,0.021,0.094,0.042,0.142,0.064c-3.297,8.64-5.914,17.536-7.796,26.597c-1.874-5.366-5.363-10.18-9.258-14.391
	c-2.495-2.697-5.223-5.25-8.47-6.967c-3.247-1.718-7.085-2.542-10.649-1.651c-3.564,0.891-6.739,3.703-7.471,7.303
	c-0.848,4.164,1.664,8.435,5.111,10.921c3.447,2.486,7.685,3.557,11.81,4.578c5.859,1.449,11.718,2.899,17.577,4.349
	c0.167,0.075,0.334,0.15,0.502,0.224c-1.808,10.031-2.706,20.216-2.642,30.409c0.006,1.077,1.689,1.272,1.683,0.181
	c-0.063-10.021,0.806-20.025,2.553-29.877c5.412,2.422,10.824,4.844,16.236,7.265c3.806,1.703,7.73,3.435,11.898,3.594
	C916.424,640.261,920.949,638.474,922.814,634.738z"/><path fill="#DCD6FF" d="M1289.348,759.852c-3.03-2.015-6.762-2.989-10.53-2.989H192.95c-19.746,0.671-46.682,5.549-47.469,9.846
	c-0.893,4.877,29.049,6.71,51.708,6.954c49.627,0.535,99.253,1.069,148.88,1.604c4.551,0.049,9.315,0.111,13.215,0.618
	c10.803,1.405,7.3,5.225-2.614,6.906c-9.914,1.681-23.183,2.026-35.06,2.946c-11.876,0.92-24.011,2.993-23.233,5.704
	c1.057,3.688,22.974,4.992,40.108,5.242c71.408,1.041,143.203,0.848,214.467-0.578c30.036-0.601,64.169-1.148,86.387,3.242
	c6.413,1.267,11.394,2.887,18.727,3.897c56.737,7.814,151.227,2.653,212.406,3.245c64.557,0.624,130.453,1.216,192.588-2.604
	c17.328-1.065,36.173-2.878,42.125-6.538c6.327-3.889-4.62-7.971-13.016-11.675c-8.396-3.703-13.366-8.758,1.086-11.462
	c7.674-1.436,18.577-1.698,28.741-1.765c50.756-0.339,104.152,2.434,150.814-1.876
	C1293.184,768.69,1295.936,764.234,1289.348,759.852z"/><path fill="#A294FE" d="M562.831,577.936c0-77.319,13.916-131.425,41.759-162.319c27.838-30.891,70.243-46.338,127.22-46.338
	c27.373,0,49.848,3.378,67.425,10.127c17.572,6.756,31.909,15.539,43.007,26.361c11.099,10.821,19.839,22.197,26.221,34.128
	c6.382,11.931,11.515,25.852,15.4,41.76c7.582,30.339,11.376,61.971,11.376,94.893c0,73.807-12.486,127.822-37.458,162.043
	c-24.972,34.224-67.98,51.332-129.023,51.332c-34.225,0-61.876-5.459-82.963-16.371c-21.088-10.912-38.386-26.914-51.887-48.002
	c-9.807-14.983-17.437-35.468-22.891-61.459C565.557,638.103,562.831,609.385,562.831,577.936z M674.927,578.214
	c0,51.795,4.578,87.173,13.735,106.131c9.157,18.963,22.428,28.44,39.817,28.44c11.468,0,21.408-4.023,29.828-12.069
	c8.415-8.048,14.61-20.764,18.591-38.152c3.975-17.386,5.965-44.486,5.965-81.298c0-54.012-4.578-90.317-13.735-108.907
	c-9.156-18.589-22.891-27.885-41.204-27.885c-18.686,0-32.187,9.482-40.51,28.44C679.09,491.878,674.927,526.977,674.927,578.214z"/><path fill="#7767E0" d="M715.61,446.067c-3.837-1.051-7.924-1.594-12.278-1.594c-18.686,0-32.187,9.482-40.51,28.44
	c-8.323,18.964-12.486,54.063-12.486,105.3c0,51.795,4.578,87.173,13.735,106.131c9.157,18.963,22.427,28.44,39.817,28.44
	c4.363,0,8.502-0.586,12.423-1.75c-11.544-3.534-20.761-12.427-27.648-26.69c-9.156-18.958-13.735-54.336-13.735-106.131
	c0-51.237,4.163-86.336,12.486-105.3C693.779,458.414,703.185,449.478,715.61,446.067z"/><path fill="#7767E0" d="M883.862,481.655c-3.885-15.908-9.018-29.829-15.4-41.76c-6.382-11.931-15.122-23.307-26.221-34.128
	c-11.098-10.822-25.435-19.605-43.007-26.361c-17.576-6.75-40.051-10.127-67.425-10.127c-4.143,0-8.2,0.092-12.189,0.255
	c21.83,0.887,40.18,4.172,55.022,9.872c17.572,6.756,31.909,15.538,43.007,26.361c11.099,10.821,19.839,22.197,26.221,34.128
	c6.382,11.931,11.515,25.852,15.4,41.76c7.582,30.339,11.376,61.971,11.376,94.893c0,73.808-12.486,127.822-37.458,162.043
	c-23.26,31.878-62.177,48.898-116.734,51.083c4.003,0.165,8.102,0.249,12.303,0.249c61.043,0,104.051-17.108,129.023-51.332
	c24.972-34.221,37.458-88.235,37.458-162.043C895.238,543.625,891.444,511.993,883.862,481.655z"/><path fill="#7D6FD6" d="M339.978,874.497c0-7.154,1.993-12.723,5.978-16.709c3.985-3.985,9.536-5.979,16.649-5.979
	c7.294,0,12.913,1.958,16.859,5.874c3.945,3.916,5.918,9.401,5.918,16.455c0,5.122-0.863,9.321-2.586,12.599
	c-1.724,3.278-4.214,5.829-7.473,7.652c-3.258,1.823-7.318,2.735-12.181,2.735c-4.942,0-9.032-0.787-12.27-2.361
	c-3.239-1.574-5.864-4.065-7.876-7.473C340.984,883.883,339.978,879.619,339.978,874.497z M353.518,874.557
	c0,4.424,0.822,7.603,2.466,9.535c1.644,1.934,3.881,2.9,6.711,2.9c2.909,0,5.161-0.946,6.756-2.839
	c1.594-1.894,2.391-5.291,2.391-10.193c0-4.125-0.832-7.139-2.496-9.042c-1.664-1.903-3.921-2.855-6.77-2.855
	c-2.73,0-4.923,0.967-6.576,2.9C354.345,866.895,353.518,870.093,353.518,874.557z"/><path fill="#7D6FD6" d="M390.374,880.595c0-4.842,1.634-8.833,4.902-11.972c3.268-3.138,7.682-4.708,13.242-4.708
	c6.357,0,11.159,1.844,14.407,5.53c2.61,2.97,3.916,6.627,3.916,10.97c0,4.882-1.62,8.883-4.857,12.001
	c-3.239,3.119-7.718,4.678-13.436,4.678c-5.102,0-9.227-1.295-12.375-3.886C392.306,890.001,390.374,885.796,390.374,880.595z
	 M402.569,880.565c0,2.83,0.573,4.923,1.719,6.277c1.146,1.355,2.586,2.032,4.319,2.032c1.753,0,3.193-0.667,4.319-2.003
	c1.126-1.335,1.689-3.477,1.689-6.426c0-2.75-0.568-4.798-1.704-6.143c-1.136-1.345-2.541-2.017-4.214-2.017
	c-1.774,0-3.239,0.682-4.394,2.047C403.147,875.698,402.569,877.776,402.569,880.565z"/><path fill="#7D6FD6" d="M432.76,908.453v-43.82h11.388v4.693c1.574-1.973,3.019-3.308,4.334-4.005
	c1.773-0.937,3.736-1.405,5.888-1.405c4.245,0,7.527,1.625,9.849,4.872c2.322,3.248,3.482,7.264,3.482,12.046
	c0,5.281-1.266,9.311-3.796,12.091c-2.531,2.78-5.729,4.17-9.595,4.17c-1.873,0-3.582-0.319-5.127-0.957
	c-1.544-0.637-2.924-1.584-4.14-2.84v15.154H432.76z M444.955,880.595c0,2.511,0.528,4.375,1.585,5.589
	c1.056,1.216,2.391,1.824,4.005,1.824c1.414,0,2.6-0.583,3.557-1.749c0.956-1.166,1.435-3.143,1.435-5.933
	c0-2.57-0.498-4.458-1.495-5.664c-0.996-1.205-2.212-1.809-3.646-1.809c-1.555,0-2.85,0.608-3.886,1.824
	C445.473,875.892,444.955,877.865,444.955,880.595z"/><path fill="#7D6FD6" d="M471.379,887.559l12.076-1.136c0.498,1.435,1.195,2.462,2.092,3.079c0.897,0.618,2.092,0.927,3.587,0.927
	c1.634,0,2.899-0.348,3.796-1.045c0.697-0.517,1.046-1.163,1.046-1.94c0-0.875-0.459-1.552-1.375-2.03
	c-0.658-0.338-2.401-0.755-5.231-1.253c-4.225-0.736-7.159-1.418-8.803-2.045c-1.644-0.627-3.029-1.687-4.155-3.18
	c-1.126-1.492-1.689-3.195-1.689-5.106c0-2.091,0.608-3.892,1.823-5.405c1.215-1.512,2.889-2.642,5.022-3.389
	c2.132-0.746,4.992-1.12,8.579-1.12c3.786,0,6.581,0.289,8.384,0.867c1.803,0.578,3.307,1.475,4.513,2.69
	c1.205,1.216,2.207,2.86,3.004,4.932l-11.538,1.136c-0.299-1.016-0.797-1.764-1.495-2.242c-0.956-0.637-2.112-0.956-3.467-0.956
	c-1.375,0-2.376,0.244-3.004,0.731c-0.627,0.488-0.941,1.079-0.941,1.775c0,0.777,0.398,1.363,1.195,1.761
	c0.797,0.398,2.531,0.756,5.201,1.075c4.045,0.458,7.054,1.095,9.027,1.911c1.973,0.816,3.482,1.981,4.529,3.494
	c1.046,1.513,1.569,3.175,1.569,4.987c0,1.831-0.553,3.614-1.659,5.345c-1.106,1.732-2.85,3.111-5.231,4.136
	c-2.382,1.025-5.625,1.537-9.73,1.537c-5.799,0-9.929-0.827-12.39-2.481C473.655,892.96,472.076,890.609,471.379,887.559z"/><path fill="#7D6FD6" d="M510.954,884.302h13.002v10.013c0,3.686-0.767,6.596-2.302,8.728c-1.535,2.132-4.155,4.015-7.861,5.649
	l-2.839-5.321c2.312-1.076,3.9-2.147,4.767-3.213c0.867-1.066,1.35-2.327,1.45-3.781h-6.217V884.302z"/><path fill="#7D6FD6" d="M552.473,852.557h22.508c4.902,0,8.573,1.165,11.015,3.497c2.44,2.332,3.661,5.65,3.661,9.954
	c0,4.424-1.33,7.881-3.99,10.372c-2.661,2.492-6.721,3.737-12.181,3.737h-7.413v16.261h-13.6V852.557z M566.073,871.239h3.318
	c2.61,0,4.444-0.453,5.5-1.36c1.056-0.907,1.584-2.067,1.584-3.482c0-1.375-0.458-2.541-1.375-3.497
	c-0.917-0.956-2.641-1.435-5.171-1.435h-3.856V871.239z"/><path fill="#7D6FD6" d="M605.977,874.915l-11.627-1.225c0.438-2.032,1.071-3.631,1.898-4.797c0.826-1.166,2.017-2.177,3.572-3.034
	c1.116-0.617,2.65-1.096,4.604-1.435c1.952-0.339,4.065-0.508,6.336-0.508c3.647,0,6.576,0.205,8.788,0.613
	c2.212,0.409,4.055,1.26,5.53,2.556c1.036,0.896,1.853,2.167,2.451,3.811c0.598,1.644,0.897,3.213,0.897,4.708v14.019
	c0,1.494,0.094,2.665,0.284,3.512c0.19,0.848,0.603,1.928,1.241,3.243h-11.418c-0.459-0.817-0.758-1.44-0.897-1.868
	c-0.139-0.428-0.279-1.101-0.418-2.018c-1.595,1.535-3.179,2.63-4.753,3.288c-2.152,0.876-4.653,1.315-7.502,1.315
	c-3.787,0-6.661-0.877-8.624-2.63c-1.963-1.753-2.944-3.916-2.944-6.486c0-2.411,0.707-4.394,2.122-5.948
	c1.415-1.555,4.025-2.71,7.832-3.467c4.563-0.916,7.522-1.559,8.877-1.928c1.355-0.368,2.79-0.852,4.304-1.45
	c0-1.495-0.309-2.541-0.926-3.138c-0.618-0.598-1.704-0.897-3.258-0.897c-1.993,0-3.487,0.319-4.484,0.957
	C607.084,872.604,606.456,873.54,605.977,874.915z M616.529,881.312c-1.674,0.598-3.418,1.126-5.231,1.585
	c-2.471,0.657-4.035,1.305-4.693,1.943c-0.677,0.657-1.016,1.404-1.016,2.242c0,0.956,0.334,1.738,1.001,2.346
	c0.668,0.608,1.649,0.912,2.944,0.912c1.355,0,2.616-0.328,3.781-0.986c1.166-0.657,1.993-1.46,2.481-2.406
	c0.488-0.946,0.732-2.177,0.732-3.691V881.312z"/><path fill="#7D6FD6" d="M658.795,864.633h11.388v29.981l0.03,1.405c0,1.992-0.424,3.89-1.271,5.694
	c-0.848,1.803-1.973,3.263-3.378,4.379c-1.405,1.116-3.189,1.923-5.351,2.421c-2.162,0.498-4.638,0.747-7.428,0.747
	c-6.377,0-10.756-0.957-13.137-2.87c-2.381-1.913-3.572-4.474-3.572-7.682c0-0.399,0.02-0.937,0.06-1.614l11.806,1.345
	c0.299,1.096,0.757,1.853,1.375,2.272c0.896,0.617,2.022,0.927,3.378,0.927c1.753,0,3.064-0.468,3.931-1.405
	c0.867-0.937,1.3-2.571,1.3-4.902v-4.813c-1.196,1.415-2.391,2.442-3.587,3.079c-1.873,0.997-3.895,1.495-6.068,1.495
	c-4.245,0-7.672-1.853-10.282-5.56c-1.853-2.63-2.78-6.108-2.78-10.432c0-4.941,1.195-8.708,3.587-11.299s5.52-3.886,9.386-3.886
	c2.471,0,4.509,0.419,6.113,1.255c1.604,0.837,3.104,2.222,4.499,4.155V864.633z M647.347,880.027c0,2.292,0.488,3.99,1.465,5.097
	c0.976,1.106,2.261,1.659,3.856,1.659c1.514,0,2.785-0.573,3.811-1.719c1.026-1.146,1.539-2.874,1.539-5.186
	c0-2.312-0.538-4.08-1.614-5.306c-1.076-1.225-2.391-1.838-3.946-1.838c-1.555,0-2.795,0.563-3.722,1.689
	C647.81,875.549,647.347,877.416,647.347,880.027z"/><path fill="#7D6FD6" d="M712.778,883.524h-24.391c0.219,1.953,0.747,3.408,1.584,4.364c1.175,1.375,2.71,2.062,4.603,2.062
	c1.196,0,2.332-0.299,3.408-0.897c0.657-0.379,1.365-1.046,2.122-2.003l11.987,1.106c-1.834,3.189-4.045,5.475-6.636,6.86
	c-2.591,1.384-6.307,2.077-11.149,2.077c-4.205,0-7.513-0.593-9.924-1.779c-2.411-1.185-4.408-3.069-5.993-5.65
	c-1.584-2.58-2.376-5.614-2.376-9.102c0-4.961,1.589-8.977,4.767-12.046c3.179-3.068,7.568-4.603,13.167-4.603
	c4.543,0,8.131,0.687,10.761,2.062c2.631,1.375,4.633,3.368,6.008,5.979c1.375,2.611,2.062,6.008,2.062,10.193V883.524z
	 M700.403,877.695c-0.239-2.351-0.872-4.035-1.898-5.051c-1.026-1.016-2.376-1.524-4.05-1.524c-1.933,0-3.478,0.767-4.633,2.302
	c-0.738,0.956-1.206,2.381-1.405,4.274H700.403z"/><path fill="#7D6FD6" d="M739.681,852.557h12.644l16.499,24.243v-24.243h12.764v43.82h-12.764l-16.41-24.06v24.06h-12.733V852.557z"/><path fill="#7D6FD6" d="M788.283,880.595c0-4.842,1.634-8.833,4.902-11.972c3.268-3.138,7.682-4.708,13.242-4.708
	c6.356,0,11.159,1.844,14.407,5.53c2.61,2.97,3.916,6.627,3.916,10.97c0,4.882-1.62,8.883-4.857,12.001
	c-3.239,3.119-7.718,4.678-13.436,4.678c-5.102,0-9.227-1.295-12.375-3.886C790.216,890.001,788.283,885.796,788.283,880.595z
	 M800.478,880.565c0,2.83,0.573,4.923,1.719,6.277c1.146,1.355,2.586,2.032,4.319,2.032c1.754,0,3.193-0.667,4.319-2.003
	c1.126-1.335,1.689-3.477,1.689-6.426c0-2.75-0.568-4.798-1.704-6.143c-1.136-1.345-2.541-2.017-4.214-2.017
	c-1.774,0-3.239,0.682-4.394,2.047C801.056,875.698,800.478,877.776,800.478,880.565z"/><path fill="#7D6FD6" d="M845.285,852.557v12.076h6.695v8.907h-6.695v11.246c0,1.353,0.129,2.247,0.389,2.685
	c0.398,0.676,1.096,1.014,2.093,1.014c0.896,0,2.152-0.258,3.766-0.775l0.896,8.398c-3.009,0.658-5.819,0.987-8.429,0.987
	c-3.03,0-5.261-0.389-6.696-1.164c-1.435-0.776-2.495-1.955-3.183-3.538c-0.687-1.582-1.031-4.144-1.031-7.687V873.54h-4.484v-8.907
	h4.484v-5.829L845.285,852.557z"/><path fill="#7D6FD6" d="M879.062,852.557h33.478v9.415h-19.877v7.652h16.978v8.848h-16.978v17.905h-13.601V852.557z"/><path fill="#7D6FD6" d="M915.44,880.595c0-4.842,1.633-8.833,4.902-11.972c3.268-3.138,7.682-4.708,13.242-4.708
	c6.357,0,11.159,1.844,14.408,5.53c2.61,2.97,3.916,6.627,3.916,10.97c0,4.882-1.62,8.883-4.857,12.001
	c-3.239,3.119-7.718,4.678-13.436,4.678c-5.102,0-9.227-1.295-12.375-3.886C917.372,890.001,915.44,885.796,915.44,880.595z
	 M927.634,880.565c0,2.83,0.573,4.923,1.719,6.277c1.146,1.355,2.586,2.032,4.319,2.032c1.753,0,3.193-0.667,4.319-2.003
	c1.126-1.335,1.689-3.477,1.689-6.426c0-2.75-0.568-4.798-1.704-6.143c-1.136-1.345-2.541-2.017-4.214-2.017
	c-1.774,0-3.239,0.682-4.394,2.047C928.213,875.698,927.634,877.776,927.634,880.565z"/><path fill="#7D6FD6" d="M991.213,896.377h-11.358v-5.141c-1.694,2.113-3.403,3.617-5.127,4.513
	c-1.724,0.897-3.841,1.345-6.351,1.345c-3.348,0-5.974-1.001-7.876-3.004c-1.904-2.003-2.855-5.086-2.855-9.251v-20.206h12.225
	v17.456c0,1.993,0.368,3.408,1.106,4.245c0.737,0.837,1.774,1.256,3.109,1.256c1.454,0,2.645-0.557,3.572-1.674
	c0.927-1.116,1.39-3.119,1.39-6.008v-15.274h12.166V896.377z"/><path fill="#7D6FD6" d="M998.596,864.633h11.329v5.171c1.694-2.112,3.408-3.622,5.142-4.528c1.733-0.906,3.845-1.36,6.336-1.36
	c3.367,0,6.003,1.001,7.907,3.004c1.903,2.003,2.855,5.096,2.855,9.281v20.176h-12.226v-17.456c0-1.993-0.368-3.403-1.105-4.23
	c-0.738-0.826-1.774-1.24-3.109-1.24c-1.475,0-2.671,0.558-3.587,1.674c-0.917,1.116-1.375,3.119-1.375,6.008v15.244h-12.166
	V864.633z"/><path fill="#7D6FD6" d="M1072.846,852.557v43.82h-11.389v-4.693c-1.594,1.993-3.049,3.338-4.364,4.035
	c-1.753,0.916-3.707,1.375-5.859,1.375c-4.324,0-7.627-1.644-9.909-4.932c-2.282-3.288-3.423-7.283-3.423-11.987
	c0-5.261,1.26-9.286,3.781-12.076c2.521-2.79,5.724-4.185,9.61-4.185c1.894,0,3.612,0.319,5.156,0.957
	c1.544,0.638,2.915,1.595,4.11,2.87v-15.185H1072.846z M1060.65,880.415c0-2.49-0.528-4.349-1.584-5.575
	c-1.056-1.225-2.391-1.838-4.005-1.838c-1.415,0-2.6,0.588-3.556,1.764c-0.957,1.176-1.435,3.149-1.435,5.919
	c0,2.59,0.493,4.489,1.48,5.694c0.986,1.206,2.207,1.808,3.662,1.808c1.554,0,2.849-0.608,3.885-1.823
	C1060.131,885.148,1060.65,883.165,1060.65,880.415z"/><path fill="#7D6FD6" d="M1080.288,884.182h13.002v12.196h-13.002V884.182z"/><path fill="#7D6FD6" d="M1100.674,884.182h13.002v12.196h-13.002V884.182z"/><path fill="#7D6FD6" d="M1121.06,884.182h13.002v12.196h-13.002V884.182z"/><path fill="#F9CBCB" d="M749.905,290.003c-0.283,20.371-3.265,39.313-9.701,58.657c-1.207,3.629-2.743,7.124-4.169,10.668
	c0.599,3.852,1.221,7.711,1.827,11.565c-11.398-0.068-22.797-0.012-34.194-0.009c7.331-4.345,14.658-8.643,22.033-12.948
	c0.456-2.842,0.921-6.559,1.191-9.303c1.823-18.559,1.013-37.978,0.63-55.904c-0.139-6.489-0.513-5.684,1.969-12.228
	c10.171-26.816,21.381-56.336,27.184-85.256c12.621,0.003,25.09,0.255,37.651,0.327
	C799.689,241.367,781.604,260.454,749.905,290.003z"/><path fill="#45359E" d="M777.288,261.916c-7.798,10.398-18.068,18.993-27.36,28.095c-0.1,21.712-1.499,42.683-7.937,63.535
	c-5.758-0.288-11.266-0.724-17.187-0.909c2.786-24.451-3.778-46.987,2.265-71.749c6.884-28.205,23.9-56.237,29.537-85.629
	c12.778-0.026,25.101,0.247,37.733,0.316C796.718,221.516,793.095,240.837,777.288,261.916z"/><path fill="#37288F" d="M777.421,261.881c-0.007,0.02-0.007,0.054-0.018,0.072c-6.863,11.66-17.575,19.155-27.499,28.05
	c-0.049,21.731-1.486,42.683-7.916,63.545c-1.689-0.097-3.377-0.195-5.065-0.288c7.198-21.146,8.426-42.407,8.075-64.607
	c32.737-29.237,13.539-30.966,24.503-63.131C772.169,237.636,774.829,249.75,777.421,261.881z"/><path fill="#45359E" d="M725.699,357.955c-8.582,3.285-20.272,2.827-23.383,12.928c11.848,0,23.698-0.062,35.546,0.01
	c0.276-4.442,0.074-8.604-1.282-12.866C732.908,358.545,729.368,358.463,725.699,357.955z"/><path fill="#F9CBCB" d="M824.273,370.637c1.361,3.392,2.724,6.572,4.092,9.88c-9.651,1.962-19.303,3.928-28.953,5.9
	c5.927-4.733,11.961-9.285,17.788-14.176c-2.108-4.93-4.497-11.493-6.803-16.021c-9.24-18.137-19.618-34.466-30.224-51.531
	c-2.522-4.059-4.246-7.972-4.917-12.871c-4.262-31.103-4.298-62.827-9.33-93.892c8.494-1.272,16.976-2.484,25.462-3.749
	c22.397,38.277,18.309,59.55,8.154,100.82c10.975,18.863,17.129,37.588,21.736,59.2C822.227,358.65,823.466,365.751,824.273,370.637
	z"/><path fill="#45359E" d="M775.282,291.919c0.726,4.918,2.252,8.401,5.018,13.072c11.636,19.65,21.296,41.327,31.555,61.98
	c4.758-0.901,9.473-1.897,14.214-2.842c-5.592-24.6-13.6-47.359-26.521-69.101c10.135-41.3,14.242-62.538-8.142-100.823
	c-0.011-0.019,0.001-0.035-0.021-0.031c-9.638,1.429-19.296,2.833-28.943,4.243c0.134,0.754,0.266,1.505,0.402,2.26
	c0.003,0.016-0.005,0.047-0.002,0.063C767.855,231.036,770.795,261.511,775.282,291.919z"/><path fill="#37288F" d="M768.589,202.52c1.958,4.051,0.207,12.51,3.516,17.761c8.567,13.594,18.694,1.201,27.259,9.606
	c14.571,14.299,0.249,42.377-4.075,59.55c-0.131,0.519-1.56,7.404-3.541,6.928c9.137,4.615,5.238-1.376,12.446,13.465
	c3.252,6.694,19.231,40.654,19.353,53.418c1.699,2.199,1.202,0.415,2.535,0.915c-5.615-24.639-13.61-47.377-26.534-69.133
	c10.119-41.311,14.271-62.518-8.165-100.838c-9.741,1.963-20.777,0.533-30.028,2.821
	C760.266,197.281,767.315,199.883,768.589,202.52z"/><path fill="#45359E" d="M815.8,369.137c-8.691,5.174-17.888,7.334-20.49,18.117c11.199-2.298,22.403-4.569,33.605-6.854
	c-0.99-4.653-2.809-8.741-5.118-12.881C821.2,369.477,818.953,369.863,815.8,369.137z"/><path fill="#F9CBCB" d="M703.5,105.329c0.104,0.194,1.11,2.224,1.219,2.761c2.267-1.345,4.307-3.012,6.437-4.575
	c-0.67-0.578-1.781-2.156-1.764-2.934c0.055-2.566,1.688-5.928-0.248-7.79c-1.936-1.862-2.785,2.26-2.814,3.55
	c-2.902-3.157-3.004-5.092-5.703-8.972C693.452,77.054,702.381,103.243,703.5,105.329z"/><path fill="#8B60FF" d="M703.221,106.944c4.714,11.237,9.359,25.626,20.741,31.057c12.945,6.176,23.839-0.038,36.919,0.324
	c1.97-9.894,4.226-19.46,6.306-29.228c-13.837,2.784-25.066,9.67-37.248,16.457c-7.142-7.398-12.84-15.62-18.437-24.219
	C708.727,103.203,705.903,104.846,703.221,106.944z"/><path fill="#7549EB" d="M705.936,105.172c5.898,10.281,8.552,25.32,19.407,32.254c8.7,5.557,25.332-0.622,35.415,0.768
	c0.198-0.328,0.146-0.069,0.036,0.138c-10.784-0.556-27.277,8.062-36.946,2.638c-12.119-6.799-14.711-22.911-20.703-34.038
	C704.099,106.084,705.053,105.56,705.936,105.172z"/><path fill="#F9CBCB" d="M746.271,147.923c3.492,15.77,6.982,31.534,10.441,47.316c12.522,0.063,25.107,0.361,37.588,0.304
	c3.23-22.271,2.694-47.795-3.199-68.521c-2.655-9.336-14.53-13.83-18.213-15.739c-3.683-1.909-0.921-0.433-0.934-0.433
	c-4.193-0.203-7.106,0.299-10.809,0.382C756.233,123.484,751.205,135.682,746.271,147.923z"/><path fill="#FFF" d="M746.828,149.706c2.627,13.565,5.854,26.903,8.705,39.882c0.919,4.184,3.199,4.791,6.573,5.74
	c7.13,2.599,14.197,1.463,21.549,0.229c6.445-1.349,11.085-3.797,11.733-11.582c1.512-18.183,1.721-39.924-4.484-57.101
	c-3.187-8.823-10.052-11.602-16.898-15.139c-2.159-1.116-2.184-1.477-4.509-0.834c-3.214,0.889-3.904-3.095-8.647,1.118
	c-2.912,2.587-12.625,28.418-13.937,32.878S746.49,147.962,746.828,149.706z"/><path fill="#182F57" d="M747.865,197.616c13.304,0.163,26.609,0.284,39.913,0.416c0.005-2.03,0.007-4.061,0.008-6.091
	c-13.302-0.124-26.605-0.275-39.907-0.39C747.879,193.573,747.87,195.595,747.865,197.616z"/><path fill="#8B60FF" d="M763.51,218.48c-0.601,3.121-1.926,3.015-3.868,3.969c-2.419,1.188-4.815,0.437-7.297,0.425
	c-0.106,0-0.195-0.035-0.31-0.068c-1.984-0.582-3.904-0.522-5.799-2.027c0.008-14.275,0.12-45.953,0.035-56.416
	c-0.085-10.463-0.167-11.823-0.007-15.632c0.704-16.814-1.031-30.788,14.173-38.032c0.735-0.35,0.498,0.082,1.099-0.068
	C753.896,149.225,769.844,185.562,763.51,218.48z"/><path fill="#8B60FF" d="M805.44,225.098c-7.799,1.207-15.97,1.172-23.45-0.427c-6.287-1.344-9.501-6.022-9.278-12.141
	c1.249-34.243-5.605-67.623-1.253-101.987c2.939,2.277-3.752-2.863,1.359,0.871c5.111,3.734,13.893,2.868,18.657,16.467
	c8.959,25.572,11.409,63.737,16.547,92.711C808.371,222.56,807.314,224.809,805.44,225.098z"/><path fill="#7549EB" d="M799.328,197.266c-6.046,0.989-11.787,0.886-17.817-0.174c0.001-0.933,0-1.867,0.003-2.8
	c5.983,0.859,11.812,0.777,17.816,0.159C799.331,195.39,799.328,196.328,799.328,197.266z"/><path fill="#F9CBCB" d="M804.773,200.244c0.388-1.094,1.134-3.121,1.829-4.301c-2.388-1.035-4.802-2.022-7.189-3.007
	c-0.326,1.337-0.393,3.361-1.563,4.279c-1.921,1.508-5.054,2.32-6.136,4.535c-1.082,2.215,3.474,0.807,4.296,0.403
	c-0.571,4.24-2.045,5.84-4.017,10.041C790.021,216.395,798.364,218.315,804.773,200.244z"/><path fill="#8B60FF" d="M798.301,194.636c3.019,1.297,5.661,2.655,8.921,3.91c4.242-12.529,15.709-26.973,14.472-40.593
	c-1.563-17.216-23.61-28.151-35.167-38.407c-3.391,5.814-6.267,11.536-9.448,17.321c7.59,8.818,16.165,16.221,26.199,22.143
	C801.616,170.886,799.963,182.758,798.301,194.636z"/><path fill="#7549EB" d="M777.674,136.795c3.8,3.281,22.534,20.238,27.559,20.324c-1.504,12.866-3.031,25.729-4.523,38.596
	c-0.802-0.36-1.602-0.721-2.403-1.08c1.65-11.876,3.312-23.75,4.97-35.625C793.595,152.76,785.395,145.328,777.674,136.795z"/><path fill="#45359E" d="M767.522,103.168c6.74-1.217,9.069-3.879,11.184-11.066c2.115-7.187-5.722-13.832-11.269-14.03
	c-7.701-0.276-8.047-1.914-12.724-5.764c-1.72,4.791-4.503,7.295-1.623,13.332C755.585,90.872,763.035,98.311,767.522,103.168z"/><path fill="#F9CBCB" d="M760.665,98.064c0.091,1.305,0.106,1.679,0.216,3.254c0.11,1.576,0.418,6.598,0.518,7.827
	c0.101,1.229,0.03,1.183,0.104,1.461c1.525,5.78,7.989,4.893,10.136,0.062c-0.458-1.921-1.139-4.722-1.553-6.449
	c-0.414-1.727-0.853-3.543-1.14-4.74c-0.286-1.197-0.222-0.928-0.441-1.843c-0.219-0.915-0.455-1.884-0.678-2.83
	C765.441,95.89,763.056,97.014,760.665,98.064z"/><path fill="#F0B4B4" d="M760.871,101.164c0.179,2.759,0.364,5.52,0.545,8.281c3.044-0.714,5.748-1.745,7.828-4.16
	c0.322-0.374,0.531-0.761,0.818-1.182c-0.318-1.306-0.861-3.567-1.119-4.645c-0.259-1.078-0.233-0.969-0.436-1.822
	C765.97,98.852,763.414,99.983,760.871,101.164z"/><path fill="#F9CBCB" d="M757.227,84.054c-1.818-0.957-3.269,0.427-3.572,2.002c-1.092,5.667,0.273,16.839,4.798,19.022
	c6.616,3.193,10.691-3.803,12.931-6.7c2.241-2.898,2.585-4.689,1.112-6.482c-1.473-1.792-3.638,0.94-4.279,2.099
	C766.979,87.455,762.548,86.856,757.227,84.054z"/><path fill="#FDB0FF" d="M583.26,77.381c-0.104,8.114-0.129,16.245-0.064,24.36c3.414-0.114,9.498-0.316,12.238-0.407
	c2.74-0.092,0.427-0.013,2.872-0.095c2.445-0.082,1.951-0.063,5.911-0.196c3.959-0.133-6.066,0.205,4.349-0.145
	c10.415-0.35,28.635-0.976,49.043-1.73c20.408-0.755,58.243-2.351,81.9-3.201c0.784-3.749,0.79-7.367,0.028-11.127
	c-23.658-1.178-61.464-2.764-81.89-3.739c-20.425-0.975-38.779-1.889-49.212-2.421c-10.433-0.532-0.398-0.024-4.359-0.226
	c-3.962-0.202-3.467-0.179-5.907-0.304c-2.439-0.125-0.163-0.009-2.872-0.148C592.587,77.862,586.627,77.556,583.26,77.381z"/><path fill="#F3A4F5" d="M598.314,98.095c2.445-0.081,1.951-0.062,5.91-0.196c3.959-0.133-6.066,0.206,4.349-0.146
	c10.414-0.351,28.634-0.982,49.042-1.738c20.408-0.756,58.242-2.366,81.9-3.216c0.772,1.028,0.77,2.083-0.008,3.166
	c-23.657,0.849-61.492,2.444-81.9,3.201c-20.408,0.757-38.628,1.378-49.043,1.73c-10.414,0.352-0.389,0.011-4.349,0.145
	c-3.959,0.134-3.465,0.115-5.911,0.196c-2.446,0.082-0.133,0.004-2.872,0.095c-2.74,0.091-8.824,0.293-12.238,0.407
	c-0.083-1.045-0.08-2.093,0.008-3.144c3.414-0.113,9.498-0.315,12.238-0.407C598.181,98.099,595.869,98.176,598.314,98.095z"/><path fill="#C727CC" d="M742.444,82.11c1.367,0.009,2.375,0.839,2.396,2.458c0.044,3.451,0.033,7.898-0.028,11.347
	c-0.029,1.619-1.041,2.434-2.407,2.425c-1.367-0.01-2.375-0.839-2.396-2.458c-0.045-3.45-0.034-7.897,0.027-11.346
	C740.065,82.917,741.077,82.101,742.444,82.11z"/><path fill="#FFF" d="M580.382,89.538c-0.005,2.758-0.048,11.844,4.011,11.875c4.059,0.03,4.068-9.048,4.074-11.806
	c0.006-2.758,0.048-11.845-4.011-11.875C580.397,77.702,580.388,86.78,580.382,89.538z"/><path fill="#C727CC" d="M579.257,89.527c0.007-3.562,0.201-12.955,5.202-12.917c5.002,0.038,5.141,9.446,5.134,13.008
	c-0.007,3.561-0.201,12.955-5.202,12.917C579.39,102.496,579.249,93.089,579.257,89.527z M581.511,89.548
	c-0.004,1.967-0.133,10.669,2.886,10.691c3.019,0.022,2.938-8.679,2.942-10.643c0.004-1.965,0.134-10.67-2.885-10.69
	C581.435,78.885,581.515,87.581,581.511,89.548z"/><path fill="#FFF" d="M595.803,101.322c0.767-0.026,1.533-0.051,2.3-0.076c0.865-7.775,0.817-15.343-0.139-23.107
	c-0.769-0.038-1.538-0.08-2.308-0.118C596.657,85.853,596.707,93.476,595.803,101.322z"/><path fill="#FFF" d="M603.839,101.055c0.766-0.026,1.532-0.052,2.298-0.076c0.814-7.542,0.768-14.893-0.136-22.425
	c-0.768-0.039-1.537-0.081-2.305-0.121C604.64,86.035,604.688,93.443,603.839,101.055z"/><path fill="#FB78FF" d="M656.189,80.352c-0.904,6.452-0.923,13.079-0.051,19.543c18.182-0.735,60.073-2.605,72.66-3.098
	c12.587-0.492,1.099-0.043,5.784-0.225c4.686-0.183,1.862-0.073,5.539-0.217c-0.22-3.952-0.21-7.946,0.028-11.895
	c-3.675-0.194-0.854-0.047-5.537-0.294s6.798,0.356-5.782-0.304C716.251,83.202,674.363,81.272,656.189,80.352z"/><path fill="#EC67F0" d="M739.366,92.597c0.007-2.727,0.011-5.453,0.02-8.179c0.208,0.012,0.416,0.021,0.624,0.033
	c-0.01,3.97-0.02,7.94-0.029,11.911c-28.133,1.101-56.255,2.434-84.387,3.557c0.005-1.257,0.006-2.514,0.01-3.771
	C683.528,95.035,711.441,93.687,739.366,92.597z"/><path fill="#FFF" d="M656.559,78.383c0.963,0.005,1.874,0.477,1.878,1.683c0.024,6.809,0.003,14.063-0.055,20.871
	c-0.01,1.205-0.923,1.667-1.887,1.661c-0.963-0.006-1.873-0.479-1.877-1.684c-0.023-6.808-0.004-14.06,0.054-20.868
	C654.682,78.841,655.595,78.378,656.559,78.383z"/><path fill="#FFF" d="M731.936,84.025c-0.007,4.217-0.019,8.434-0.03,12.651c1.047-0.04,2.094-0.082,3.14-0.122
	c0.01-4.121,0.019-8.243,0.029-12.364C734.029,84.135,732.982,84.079,731.936,84.025z"/><path fill="#C15EFF" d="M1220.944,659.537c-2.787-17.157-2.051-34.838,2.296-51.677c2.039-7.896,4.672-15.954,8.805-23.058
	l0.072,0.76c0.984,1.939,7.936,15.18,19.948,16.469c9.766,1.047,18.794-6.243,26.011-12.071c2.543-2.054,4.517-3.958,5.879-5.356
	c-4.15,0.136-10.209-0.139-17.004-2.37c-5.377-1.766-7.247-3.453-10.822-4.559c-4.617-1.428-11.53-1.708-21.633,3.306
	c4.764-6.694,11.325-11.591,18.147-16.07c6.775-4.447,13.901-8.555,19.823-14.151c4.524-4.275,7.842-9.285,9.757-15.046
	c1.897,3.491,8.628,14.479,19.516,15.648c9.766,1.047,18.793-6.243,26.01-12.072c2.544-2.054,4.517-3.957,5.88-5.355
	c-4.149,0.137-10.21-0.139-17.004-2.37c-5.377-1.766-7.247-3.454-10.821-4.559c-4.718-1.459-11.83-1.723-22.297,3.639
	c1.635-8.727,1.524-17.977,1.183-26.801c-0.168-4.346-0.597-8.663-1.049-12.977c2.571,4.334,9.001,13.341,18.803,14.393
	c9.766,1.047,18.793-6.243,26.01-12.072c2.543-2.054,4.517-3.958,5.88-5.355c-4.15,0.136-10.21-0.139-17.004-2.371
	c-5.377-1.765-7.247-3.453-10.821-4.559c-4.89-1.512-12.353-1.739-23.457,4.25c-0.219-2.224-0.418-4.45-0.56-6.683
	c-0.622-9.715,0.653-19.381,7.148-26.995l0.151,1.583c0.984,1.939,7.935,15.181,19.948,16.469
	c9.766,1.047,18.793-6.243,26.01-12.071c2.544-2.055,4.518-3.958,5.88-5.355c-4.149,0.136-10.21-0.14-17.004-2.371
	c-5.377-1.766-7.247-3.453-10.822-4.558c-4.501-1.392-11.181-1.694-20.872,2.934c5.226-4.685,11.671-7.922,18.176-10.69l2.135,1.434
	c2.208,0.487,17.437,3.628,26.393-5.18c7.28-7.161,7.37-19.226,7.441-28.87c0.025-3.4-0.204-6.241-0.429-8.258
	c-2.626,3.426-6.843,8.117-13.115,12.109c-4.965,3.159-7.554,3.55-10.799,5.695c-4.449,2.942-9.565,8.812-12.063,21.749
	c-6.398,2.729-12.673,5.882-17.972,10.39c-5.402,4.595-9.076,10.454-10.707,17.201c-0.401-5.04-2.103-14.001-9.05-18.704
	c-7.533-5.1-18.084-3.057-26.519-1.425c-2.973,0.575-5.414,1.275-7.135,1.826c3.453,1.691,8.29,4.549,12.879,9.325
	c3.631,3.78,4.428,5.973,6.871,8.43c3.429,3.448,9.655,6.966,21.939,6.702l0.115-0.277c-0.576,7.368,0.553,14.787,1.326,22.101
	c0.577,5.456,0.904,10.936,0.99,16.42l-0.081-0.41c-1.084-1.697-8.702-13.266-19.891-13.356c-9.096-0.073-16.75,7.471-22.868,13.502
	c-2.157,2.126-3.801,4.06-4.929,5.473c3.811-0.505,9.422-0.805,15.887,0.63c5.117,1.135,6.995,2.52,10.39,3.213
	c4.691,0.955,11.679,0.463,21.516-6.256c0,3.449-0.094,6.898-0.297,10.343c-0.208,3.532-0.596,6.997-1.337,10.332
	c-0.103,0.057-0.204,0.111-0.307,0.168l0.077,0.803c-1.24,5.057-3.345,9.802-6.963,14.006c-3.609,4.194-8.021,7.556-12.607,10.651
	l-0.269-2.297c-0.949-1.776-7.645-13.902-18.793-14.86c-9.063-0.779-17.279,6.149-23.848,11.686
	c-2.315,1.952-4.106,3.753-5.34,5.073c3.839-0.207,9.456-0.07,15.791,1.863c5.014,1.53,6.778,3.056,10.109,4.009
	c3.889,1.114,9.495,1.322,17.371-2.22c-0.715,0.459-1.43,0.916-2.141,1.374c-6.803,4.377-13.71,8.893-19.006,15.103
	c-1.46,1.713-2.773,3.534-3.967,5.43c-0.029,0.016-0.058,0.031-0.088,0.048l0.007,0.077c-3.795,6.062-6.362,12.919-8.431,19.713
	c-5.665,18.599-6.938,38.401-3.822,57.584C1219.714,660.655,1221.088,660.423,1220.944,659.537z"/><path fill="#C15EFF" d="M259.684,528.167c-7.627-6.125-15.616-11.816-23.922-17.048c-2.705-3.682-5.025-7.613-6.941-11.735
	c3.744-0.98,6.998-5.454,5.379-11.549c-0.73-2.747-3.046-7.582-4.458-10.03c-4.054-7.027-4.346-16.137-0.766-23.818
	c-3.237,4.804-6.495,9.646-8.751,14.916c-2.256,5.271-5.671,12.187-4.635,17.633c1,5.26,4.2,12.742,11.126,13.049
	c1.388,3.083,2.996,6.065,4.821,8.922c-6.895-4.161-13.995-8.012-21.282-11.529c-0.026-0.11-0.07-0.221-0.155-0.33
	c-3.076-4.009-5.68-8.333-7.79-12.89c3.752-0.969,7.019-5.447,5.398-11.553c-0.729-2.747-3.045-7.581-4.458-10.031
	c-4.053-7.027-4.346-16.136-0.766-23.817c-3.237,4.803-6.495,9.646-8.751,14.917c-2.256,5.27-5.671,12.187-4.636,17.632
	c1,5.26,4.201,12.743,11.126,13.049c1.786,3.963,3.938,7.757,6.442,11.334c-7.002-3.251-14.16-6.208-21.465-8.844
	c-3.072-4.005-5.673-8.325-7.781-12.877c3.752-0.97,7.02-5.448,5.398-11.554c-0.73-2.746-3.046-7.582-4.458-10.03
	c-4.054-7.027-4.346-16.137-0.765-23.818c-3.237,4.804-6.495,9.645-8.751,14.917c-2.256,5.271-5.671,12.187-4.635,17.633
	c1.001,5.261,4.201,12.745,11.128,13.05c1.819,4.034,4.016,7.894,6.579,11.529c-3.511-1.215-7.046-2.376-10.617-3.445
	c-2.988-0.893-6.013-1.675-9.036-2.466c-3.658-2.818-7.003-5.973-10.001-9.415c3.406-1.886,5.391-6.967,2.166-12.347
	c-1.454-2.424-5.023-6.429-7.066-8.395c-5.862-5.644-8.599-14.226-7.154-22.439c-1.881,5.39-3.773,10.823-4.566,16.408
	c-0.793,5.584-2.281,13.028,0.198,17.939c2.395,4.743,7.542,11.037,14.412,9.563c2.263,2.663,4.724,5.164,7.38,7.477
	c-9.325-2.264-18.804-4.002-28.376-5.285c-4.273-2.349-8.248-5.121-11.883-8.252c3.142-2.304,4.418-7.567,0.44-12.43
	c-1.791-2.189-5.917-5.65-8.232-7.311c-6.645-4.767-10.58-12.839-10.29-21.104c-1.122,5.549-3.874,11.576-3.883,17.171
	c-0.01,5.594,1.174,12.672,4.338,17.169c3.054,4.342,9.073,9.84,15.721,7.486c2.769,2.434,5.732,4.664,8.875,6.66
	c-8.519-0.989-17.1-1.586-25.722-1.794c-0.065-0.057-0.122-0.119-0.213-0.162c-4.621-2.192-8.943-4.859-12.914-7.937
	c3.036-2.443,4.053-7.752-0.182-12.407c-1.905-2.094-6.213-5.343-8.617-6.886c-6.898-4.428-11.249-12.277-11.378-20.523
	c-0.842,5.58-3.206,11.821-2.932,17.393c0.275,5.572,1.735,12.46,5.132,16.786c3.28,4.177,9.587,9.363,16.127,6.698
	c3.274,2.588,6.787,4.9,10.506,6.904c-9.008-0.076-18.043,0.265-27.068,1.05c-0.262,0.023-4.052,0.208-9.932-0.235
	c0.664-3.463-1.597-7.665-7.408-9.024c-2.835-0.662-8.405-0.966-11.36-0.918c-8.481,0.137-16.689-3.843-21.461-10.404
	c2.424,4.939,4.87,9.914,8.257,14.247c3.387,4.334,7.577,10.401,12.967,12.059c5.202,1.601,13.596,2.389,17.759-3.253
	c3.678,0.281,7.392,0.309,11.113,0.068c0.039,0,0.067,0.015,0.108,0.012c0.183-0.016,0.365-0.025,0.548-0.041
	c0.089-0.006,0.178-0.013,0.267-0.019c5.388-0.454,10.778-0.742,16.164-0.887c-3.491,1.84-6.841,3.921-10.031,6.218
	c-0.038-0.022-0.072-0.051-0.111-0.072c-6.42-3.594-13.566,1.722-17.374,6.025c-3.808,4.303-5.943,11.261-6.768,16.916
	c-0.825,5.655,0.91,12.061,1.195,17.755c0.945-8.375,6.051-16.231,13.352-20.542c2.543-1.501,7.151-4.684,9.254-6.76
	c4.37-4.314,4.228-9.332,1.922-12.065c4.078-2.908,8.424-5.451,12.992-7.573c8.832-0.1,17.641,0.231,26.396,0.962
	c-4.383,2.117-8.567,4.602-12.506,7.417c-6.218-2.716-13.166,2.445-16.958,6.609c-3.924,4.308-6.223,11.187-7.177,16.757
	c-0.953,5.569,0.65,11.819,0.811,17.402c1.135-8.243,6.441-16.068,13.877-20.461c2.591-1.531,7.294-4.757,9.453-6.841
	c4.804-4.635,4.433-9.948,1.694-12.405c4.316-3.042,8.928-5.677,13.785-7.833c0.197-0.088,0.329-0.219,0.435-0.362
	c2.43,0.233,4.855,0.498,7.274,0.796c6.484,0.797,12.9,1.9,19.278,3.149c-4.055,2.018-7.936,4.351-11.603,6.973
	c-6.215-2.704-13.157,2.453-16.947,6.614c-3.924,4.309-6.223,11.187-7.177,16.757c-0.954,5.569,0.649,11.819,0.811,17.402
	c1.134-8.243,6.442-16.068,13.876-20.461c2.591-1.531,7.294-4.757,9.454-6.842c4.797-4.629,4.434-9.935,1.704-12.396
	c4.068-2.861,8.399-5.362,12.948-7.444c8.382,1.742,16.645,3.878,24.771,6.39c-4.5,2.149-8.792,4.688-12.827,7.571
	c-6.218-2.716-13.167,2.445-16.96,6.609c-3.924,4.308-6.223,11.187-7.177,16.756c-0.954,5.57,0.649,11.819,0.811,17.402
	c1.134-8.242,6.441-16.068,13.877-20.461c2.591-1.531,7.294-4.757,9.454-6.841c4.803-4.635,4.432-9.949,1.693-12.405
	c4.316-3.042,8.929-5.677,13.785-7.833c0.002-0.001,0.003-0.003,0.004-0.003c7.357,2.358,14.572,5.067,21.658,8.047
	c-4.576,2.159-8.936,4.724-13.028,7.65c-6.13-2.665-12.977,2.421-16.716,6.526c-3.87,4.251-6.139,11.036-7.08,16.531
	c-0.941,5.494,0.641,11.66,0.8,17.167c1.118-8.131,6.354-15.851,13.69-20.185c2.556-1.51,7.195-4.693,9.326-6.749
	c4.732-4.566,4.374-9.802,1.68-12.229c4.256-2.999,8.804-5.597,13.592-7.724c0.022-0.009,0.033-0.026,0.052-0.036
	c6.939,2.998,13.709,6.328,20.332,9.914c-4.412,2.124-8.621,4.622-12.583,7.453c-6.218-2.716-13.167,2.445-16.959,6.609
	c-3.924,4.309-6.223,11.187-7.177,16.756c-0.954,5.57,0.649,11.819,0.81,17.402c1.135-8.242,6.442-16.068,13.877-20.461
	c2.591-1.531,7.294-4.757,9.453-6.841c4.797-4.629,4.434-9.935,1.704-12.395c4.06-2.855,8.382-5.352,12.92-7.432
	c0.753,0.418,1.53,0.792,2.279,1.216c12.049,6.834,23.473,14.632,34.167,23.272C258.692,529.645,259.189,528.907,259.684,528.167z"/><path fill="#FB7DFF" d="M1072.725,452.188c6.363,0.326,16.171-0.048,31.593-5.984c9.451-3.676,22.578-8.691,35.807-20.634
	c0.571-0.517,1.584-1.417,2.83-2.677c0.066-0.056,0.141-0.122,0.196-0.186c0.123-0.1,0.244-0.219,0.375-0.33
	c0.429-0.414,0.875-0.87,1.382-1.312c9.29-9.469,27.325-30.882,23.725-54.278c-0.185-1.349-2.935-18.344-11.843-20.176
	c-11.161-2.178-24.046,20.719-28.572,18.244c-2.284-1.266,0.307-7.255,0.808-15.105c1.292-17.63-7.906-40.289-23.205-43.568
	c-7.227-1.622-16.099,1.116-21.567,7.248c-8.998,9.867-1.534,27.898-3.094,28.351c-2.283,0.559-6.128-37.168-26.578-44.127
	c-7.187-2.408-17.023-1.22-21.077,4.021c-5.928,7.693,3.26,20.966-0.554,23.619c-4.043,2.813-13.528-12.333-32.965-16.211
	c-4.937-0.949-16.539-3.242-24.37,3.586c-6.844,5.849-9.041,16.51-5.864,24.585c2.976,7.44,9.765,10.77,11.657,11.626
	c12.183,5.768,20.424-1.975,42.373,0.555c7.658,0.857,15.988,2.865,16.121,5.472c-0.03,1.928-4.695,2.422-9.738,7.188
	c-0.114,0.089-0.283,0.223-0.476,0.448c-1.52,1.472-6.905,6.746-7.018,13.775c-0.047,0.294-0.004,7.923,4.98,10.752
	c2.545,1.507,5.379,1.066,6.621,0.918c12.364-1.666,28.19,0.018,28.517,2.027c0.44,2.292-19.522,4.792-20.767,12.491
	c-1.025,6.398,11.415,12.758,13.023,13.575c13.433,6.744,27.978,4.246,28.006,5.367c-0.016,0.953-11.893,0.005-21.624,7.293
	c-4.551,3.363-11.063,10.259-9.42,15.646C1053.952,451.036,1067.164,451.86,1072.725,452.188z"/><path fill="#FFF" d="M1070.514,408.387c0.485-2.719,3.328-3.934,5.78-4.333c3.091-0.503,6.261-0.189,9.309,0.442
	c6.411,1.326,12.614,4.223,19.266,4.107c3.362-0.059,6.706-0.906,9.415-2.95c-7.756-6.786-14.706-14.501-21.492-22.239
	c-2.54-2.895-5.077-5.81-7.649-8.696c-9.95-2.913-19.746,3.519-29.791,2.275c-2.673-0.331-5.216-1.24-7.375-2.867
	c-0.363-0.274,0.097-0.81,0.46-0.537c4.137,3.117,9.547,3.212,14.471,2.497c4.874-0.708,9.584-2.297,14.505-2.721
	c2.316-0.2,4.642-0.093,6.902,0.432c-6.965-7.776-14.221-15.306-22.578-21.596c-10.121-7.614-21.944-13.52-34.68-14.814
	c-1.597-0.156-3.198-0.242-4.793-0.248c-0.452-0.015-0.507-0.713-0.056-0.718c12.393,0.107,24.216,4.73,34.505,11.409
	c1.754,1.135,3.448,2.347,5.114,3.592c-0.028-0.075-0.039-0.158,0.001-0.251c2.503-5.753-1.246-11.544-4.742-15.904
	c-1.912-2.384-3.942-4.707-5.442-7.385c-1.247-2.223-2.276-4.797-1.664-7.375c0.105-0.441,0.802-0.317,0.696,0.126
	c-0.715,3.013,0.945,6.064,2.562,8.495c1.76,2.646,3.925,4.985,5.822,7.529c3.117,4.181,5.659,9.642,3.409,14.815
	c-0.072,0.167-0.217,0.197-0.354,0.173c9.365,7.054,17.442,15.68,25.194,24.456c4.298,4.864,8.547,9.792,12.927,14.59
	c5.159-5.746,7.925-13.703,7.658-21.4c-0.146-4.205-1.378-8.044-3.201-11.809c-1.98-4.087-4.371-8.057-5.359-12.54
	c-0.976-4.424-0.372-9.452,3.051-12.71c0.326-0.31,0.867,0.146,0.537,0.459c-3.447,3.282-3.874,8.355-2.745,12.752
	c1.158,4.509,3.65,8.491,5.598,12.676c1.685,3.622,2.731,7.367,2.832,11.375c0.094,3.724-0.513,7.45-1.693,10.98
	c-1.32,3.948-3.396,7.654-6.192,10.747c5.347,5.829,10.904,11.45,17.042,16.469c4.253,3.483,8.818,6.665,13.641,9.346
	c-1.894-11.278,6.741-20.727,9.078-31.234c0.684-3.074,0.819-6.253,0.005-9.316c-0.117-0.436,0.55-0.673,0.668-0.231
	c2.993,11.259-5.576,21.107-8.396,31.407c-0.853,3.112-1.196,6.331-0.624,9.525c0.017,0.095-0.015,0.163-0.056,0.221
	c3.671,1.992,7.486,3.696,11.449,4.969c-0.131,0.11-0.252,0.23-0.375,0.33c-0.055,0.065-0.13,0.13-0.196,0.186
	c-6.762-2.21-13.163-5.602-19.068-9.684c-3.161-2.189-6.165-4.569-9.06-7.073c-4.524,3.513-10.578,3.639-15.971,2.56
	c-6.26-1.253-12.248-3.995-18.704-4.177c-2.977-0.084-8.276,0.26-8.942,3.994C1071.129,408.962,1070.434,408.835,1070.514,408.387z"/><path fill="#FB7DFF" d="M204.93,440.852c15.863,3.031,46.391-11.878,59.662-2.364c-7.066,17.582-30.528,3.167-45.215,6.728
	c-13.384,4.83,17.156,32.281,38.202,32.15c17.186,0.596,23.507-20.497,54.011-38.274c25.856-15.567,34.559-10.929,44.352-23.951
	c17.912-23.831,6.853-63.32,3.046-63.49c-1.538-0.069-1.173,6.256-7.119,18.344c0.387,1.56-28.463,45.611-30.443,23.68
	c3.958-23.526,33.646-23.524,33.237-53.401c-0.316-22.401-27.596-39.435-29.434-37.878c11.61,12.07-2.514,52.81-17.597,63.095
	c-9.554,5.422-8.472-3.66-4.304-12.697c9.772-31.545,17.109-47.492,4.424-70.903c-15.549-28.696-49.304-18.05-83.076-32.542
	c0,0-31.179,32.553-29.508,62.765c1.608,29.076,33.773,23.388,46.638,38.356c6.204,5.935,2.132,16.171-5.112,17.735
	c-11.951,4.996-26.825-3.427-37.483-9.621c-17.653-10.269-21.409-17.853-25.401-15.919c-10.734,4.768,1.343,44.748,19.21,48.859
	c17.433,13.204,57.749-4.671,71.102,15.163c-8.89,14.879-55.796,7.719-72.141-1.276c-8.062-5.715-11.302-13.063-12.913-12.283
	C177.806,403.732,190.866,437.173,204.93,440.852z"/><path fill="#FFF" d="M237.577,457.868c4.546,2.181,9.584,3.202,14.618,3.023c4.886-0.168,9.561-1.566,13.893-3.784
	c4.745-2.441,9.017-5.647,13.359-8.722c4.71-3.321,9.597-6.406,14.669-9.148c2.293-1.232,4.602-2.518,7.02-3.49
	c2.013-0.81,4.303-1.346,6.34-0.306c0.023,0.011,0.041-0.002,0.064,0.01c0.183,0.359,0.384,0.704,0.558,1.07
	c0.594,1.212,1.161,2.445,1.676,3.702c0.154-0.115,0.314-0.206,0.482-0.303c-0.953-2.261-2.033-4.483-3.238-6.627
	c0.002-0.016,0.005-0.032-0.002-0.041c-0.257-1.026-0.3-2.125-0.244-3.187c0.048-0.997,0.163-2.132,0.731-2.981
	c0.855-1.262,2.199-2.21,3.435-3.077c1.243-0.857,2.515-1.694,3.797-2.497c9.027-5.654,18.86-10.114,27.135-16.906
	c6.797-5.587,12.626-12.83,14.495-21.603c0.076-0.353-0.487-0.443-0.565-0.073c-1.095,5.108-3.595,9.778-6.863,13.835
	c-6.399,7.938-15.253,13.18-24.01,18.152c-4.854,2.749-9.743,5.453-14.328,8.638c-1.685,1.175-3.659,2.55-4.149,4.658
	c-0.284,1.175-0.343,2.479-0.216,3.729c-3.541-5.933-7.988-11.26-12.391-16.564c-0.199-0.248-0.414-0.498-0.613-0.745
	c0,0,0,0,0.003-0.016c-0.885-4.974-0.122-10.073,1.621-14.787c3.547-9.615,10.938-16.738,18.42-23.417
	c2.047-1.827,4.109-3.652,6.13-5.514c1.897-1.743,3.808-3.525,5.451-5.532c2.781-3.422,4.798-7.846,3.826-12.329
	c-0.078-0.351-0.646-0.296-0.561,0.065c1.227,5.639-2.292,10.689-6.069,14.501c-7.512,7.567-16.49,13.78-22.713,22.577
	c-4.778,6.755-7.964,15.28-6.798,23.625c-4.117-4.979-8.178-10.056-11.355-15.709c-1.732-3.095-3.119-6.334-4.274-9.661
	c-0.005-0.025,0.007-0.047-0.005-0.082c-0.02-0.027-0.031-0.061-0.059-0.098c-1.038-3.018-1.896-6.1-2.646-9.207
	c-1.245-5.171-2.247-10.396-3.433-15.584c0.897-5.526,3.184-10.746,5.753-15.681c4.604-8.862,10.866-17.08,13.395-26.883
	c2.243-8.726,0.779-19.496-7.059-25.022c-0.301-0.214-0.649,0.231-0.348,0.444c4.361,3.069,6.79,8.064,7.561,13.264
	c1.486,10.06-3.392,19.466-8.32,27.877c-4.539,7.738-9.528,15.726-11.303,24.642c-0.156-0.663-0.302-1.332-0.464-2.004
	c-1.66-6.617-3.97-12.988-7.026-19.086c-6.263-12.494-14.918-23.566-23.513-34.502c-0.217-0.29-0.671,0.049-0.454,0.339
	c1.055,1.336,2.109,2.671,3.155,4.014c8.235,10.567,16.331,21.477,21.89,33.731c-2.588-2.554-6.219-3.89-9.553-5.15
	c-4.179-1.577-8.969-3.591-10.657-8.105c-0.129-0.343-0.653-0.135-0.524,0.208c1.575,4.231,5.872,6.457,9.838,7.995
	c4.127,1.602,8.866,3.018,11.61,6.728c0.013,0.018,0.031,0.005,0.045,0.023c0,0,0,0,0.007,0.01
	c2.658,6.211,4.421,12.68,5.874,19.267c1.387,6.31,2.567,12.663,4.366,18.879c0.173,0.592,0.363,1.187,0.545,1.773
	c-3.109-4.161-8.281-6.498-13.33-7.439c-5.839-1.088-11.831-0.222-17.65,0.574c-5.779,0.792-11.521,1.274-17.341,0.91
	c-11.209-0.714-22.215-4.001-31.967-9.568c-0.313-0.191-0.536,0.344-0.221,0.519c5.314,3.038,11,5.4,16.897,7.039
	c5.289,1.47,10.735,2.356,16.222,2.631c5.665,0.269,11.235-0.254,16.838-1.015c5.845-0.799,11.855-1.623,17.709-0.419
	c5.405,1.114,10.993,3.932,13.602,9.034c1.71,4.866,3.924,9.497,6.763,13.845c3.911,5.955,8.619,11.328,13.132,16.818
	c0.385,0.477,0.763,0.945,1.14,1.413c-3.568-1.61-7.597-2.153-11.494-1.987c-4.19,0.171-8.286,1.264-12.316,2.35
	c-4.175,1.138-8.35,2.219-12.625,2.922c-8.293,1.368-16.742,1.637-25.097,0.8c-0.368-0.037-0.45,0.534-0.089,0.562
	c4.585,0.453,9.208,0.596,13.799,0.393c4.126-0.181,8.242-0.623,12.299-1.332c4.165-0.735,8.227-1.816,12.301-2.92
	c4.08-1.095,8.237-2.162,12.485-2.236c3.94-0.07,7.992,0.597,11.509,2.443c0.016,0.003,0.018-0.014,0.025-0.004
	c3.32,4.159,6.44,8.468,8.965,13.136c-1.89-0.711-3.964-0.322-5.825,0.389c-2.732,1.022-5.33,2.51-7.889,3.898
	c-4.945,2.704-9.714,5.7-14.317,8.956c-4.434,3.142-8.801,6.448-13.682,8.878c-4.436,2.21-9.202,3.505-14.158,3.542
	c-4.648,0.032-9.28-0.995-13.47-3.003C237.471,457.196,237.25,457.715,237.577,457.868z"/><path fill="#A294FE" d="M343.222,698.725h-197.76V609.44l197.76-235.073h94.616v240.137h49.04v84.221h-49.04v73.028h-94.616V698.725
	z M343.222,614.504V491.541L238.728,614.504H343.222z"/><rect width="20.352" height="84.221" x="466.526" y="614.504" fill="#7767E0"/><rect width="20.351" height="240.137" x="417.486" y="374.366" fill="#7767E0"/><polygon fill="#7767E0" points="238.728 614.504 343.222 494.435 343.222 470.486 218.377 614.504"/><rect width="20.351" height="73.028" x="417.486" y="698.725" fill="#7767E0"/><path fill="#A294FE" d="M1144.56,698.725H946.8V609.44l197.76-235.073h94.616v240.137h49.04v84.221h-49.04v73.028h-94.616V698.725z
	 M1144.56,614.504V491.541l-104.494,122.963H1144.56z"/><rect width="20.352" height="84.221" x="1267.865" y="614.504" fill="#7767E0"/><rect width="20.352" height="240.137" x="1218.824" y="374.366" fill="#7767E0"/><polygon fill="#7767E0" points="1040.066 614.504 1144.56 494.435 1144.56 470.486 1019.715 614.504"/><rect width="20.352" height="73.028" x="1218.824" y="698.725" fill="#7767E0"/><path fill="#E9E6FF" d="M1203.191,153.191c-3.216,0-6.276,0.665-9.052,1.863c0.035-0.617,0.055-1.238,0.055-1.863
	c0-17.702-14.35-32.053-32.052-32.053c-6.442,0-12.439,1.902-17.463,5.173c-0.83-23.494-20.134-42.286-43.83-42.286
	c-24.224,0-43.862,19.638-43.862,43.862c0,0.482,0.011,0.961,0.026,1.439c-5.674-5.09-13.172-8.187-21.395-8.187
	c-17.702,0-32.052,14.351-32.052,32.053c0,1.279,0.077,2.54,0.223,3.779c-3.612-2.388-7.94-3.779-12.594-3.779
	c-12.63,0-22.868,10.238-22.868,22.868c0,12.63,10.238,22.868,22.868,22.868c6.072,0,11.59-2.367,15.685-6.228
	c5.237,10.576,16.138,17.85,28.739,17.85c8.031,0,15.372-2.954,20.996-7.834c5.093,3.408,11.216,5.397,17.804,5.397
	c8.765,0,16.707-3.519,22.493-9.22c5.786,5.701,13.728,9.22,22.493,9.22c7.57,0,14.526-2.626,20.01-7.015
	c5.805,5.837,13.844,9.452,22.727,9.452c11.82,0,22.144-6.399,27.701-15.921c3.757,2.705,8.366,4.3,13.349,4.3
	c12.63,0,22.868-10.238,22.868-22.868C1226.059,163.429,1215.821,153.191,1203.191,153.191z"/><path fill="#E9E6FF" d="M471.688,124.483c-3.428,0-6.691,0.709-9.651,1.987c0.038-0.657,0.059-1.319,0.059-1.987
	c0-18.873-15.3-34.174-34.174-34.174c-6.868,0-13.262,2.028-18.619,5.515c-0.884-25.049-21.466-45.085-46.731-45.085
	c-25.827,0-46.764,20.937-46.764,46.764c0,0.514,0.011,1.025,0.028,1.535c-6.05-5.427-14.044-8.729-22.81-8.729
	c-18.874,0-34.174,15.3-34.174,34.174c0,1.364,0.082,2.708,0.238,4.03c-3.851-2.546-8.466-4.03-13.428-4.03
	c-13.465,0-24.381,10.916-24.381,24.381c0,13.465,10.916,24.381,24.381,24.381c6.473,0,12.357-2.524,16.723-6.64
	c5.584,11.276,17.206,19.031,30.641,19.031c8.563,0,16.39-3.15,22.386-8.353c5.43,3.634,11.958,5.754,18.982,5.754
	c9.345,0,17.812-3.752,23.982-9.83c6.169,6.078,14.637,9.83,23.982,9.83c8.071,0,15.487-2.8,21.335-7.479
	c6.189,6.224,14.76,10.077,24.231,10.077c12.602,0,23.61-6.823,29.534-16.975c4.005,2.884,8.92,4.584,14.232,4.584
	c13.465,0,24.381-10.916,24.381-24.381C496.069,135.399,485.153,124.483,471.688,124.483z"/><path fill="#FB7DFF" d="M1111.889,803.481c-2.538,4.538-7.032,7.594-11.363,10.489H952.304c-6.081-1.102-11.288-6.363-16.656-9.462
	c-5.336-3.078-9.722-8.544-9.797-14.723c-0.076-7.82,7.95-14.679,15.674-13.362c2.776,0.487,5.541,1.815,8.263,1.146
	c4.536-1.146,5.973-7.097,4.817-11.645c-1.156-4.515-3.942-8.565-4.612-13.178c-1.265-8.857,7.259-17.704,16.159-16.753
	c7.82,0.842,13.567,7.561,17.985,14.086c2.355,3.51,5.39,7.539,9.592,7.334c3.306-0.184,5.93-3.111,6.924-6.265
	c1.005-3.155,0.8-6.536,0.821-9.873c0.13-9.388,2.441-18.774,6.73-27.168c3.36-6.546,8.587-12.929,15.846-14.161
	c7.906-1.307,15.781,4.311,19.033,11.624c3.283,7.312,2.744,15.77,0.799,23.526c-1.437,5.713-3.392,12.389,0.314,16.947
	c0.842,1.059,1.923,1.88,3.099,2.516c4.591,2.486,10.694,1.793,14.648-1.641c1.825-1.588,3.176-3.661,5.023-5.207
	c4.623-3.845,11.99-3.489,16.603,0.335c4.612,3.825,6.416,10.489,4.925,16.311c-0.842,3.317-2.647,6.319-3.694,9.571
	c-1.08,3.262-1.307,7.108,0.713,9.851c5.185,7.032,17.758,0.13,24.682,5.465C1114.298,792.42,1114.428,798.945,1111.889,803.481z"/><path fill="#FFF" d="M1040.155,755.867c-0.54,3.878-2.766,7.409-6.017,9.592c-3.478,2.334-8.339,3.208-10.51,7.129
	c-0.065,0.119-0.151,0.172-0.238,0.216c-1.026,4.192-2.052,8.382-2.937,12.584c-1.956,9.268-3.23,19.098-2.161,28.582h-1.059
	c-0.302-2.658-0.422-5.347-0.4-8.026c0.043-4.548,0.518-9.031,1.222-13.481c-0.206,0-0.4-0.109-0.454-0.389
	c-0.421-2.354-2.052-4.159-3.673-5.822c-1.891-1.954-3.791-3.889-5.692-5.833c-3.348-3.456-6.763-7.475-6.773-12.562
	c0-0.692,1.069-0.692,1.069,0c0.01,5.249,3.921,9.192,7.345,12.703c1.825,1.879,3.705,3.726,5.498,5.649
	c1.23,1.329,2.386,2.787,2.97,4.505c1.75-10.078,4.655-19.994,6.773-29.996c1.35-6.373,2.376-13.006,2.549-19.617
	c-0.043-0.021-0.087-0.043-0.13-0.076c-3.056-2.959-6.47-6.491-6.124-11.103c0.054-0.681,1.123-0.691,1.069,0
	c-0.302,4.019,2.507,7.107,5.196,9.744c0.055-7.659-1.091-15.252-4.288-22.339c-0.281-0.616,0.637-1.167,0.93-0.541
	c1.555,3.446,2.635,7.054,3.348,10.737c1.901-2.289,3.154-5.033,3.64-7.972c0.118-0.68,1.146-0.388,1.037,0.281
	c-0.561,3.371-2.116,6.525-4.429,9.042c0.627,3.715,0.886,7.507,0.843,11.299c-0.119,10.261-2.356,20.232-4.764,30.159
	c2.28-2.441,5.704-3.521,8.577-5.163c3.565-2.03,5.974-5.519,6.546-9.581C1039.215,754.906,1040.252,755.197,1040.155,755.867z"/><path fill="#FFF" d="M993.75,813.97h-1.08c0.097-2.377,0.076-4.764-0.076-7.139c-0.032-0.595-0.086-1.189-0.14-1.783
	c-0.075,0.141-0.216,0.238-0.432,0.216c-7.291-0.756-14.15-4.353-18.86-9.981c-0.443-0.519,0.313-1.285,0.755-0.756
	c4.527,5.401,11.094,8.933,18.104,9.657c0.162,0.021,0.292,0.097,0.367,0.204c-0.508-5.011-1.642-9.959-3.641-14.582
	c-1.793-4.169-4.213-8.036-6.88-11.699c-0.086,0.033-0.173,0.033-0.282,0.011c-5.844-1.696-13.47,0.853-18.071-4.245
	c-0.453-0.518,0.303-1.275,0.756-0.757c1.934,2.14,4.85,2.874,7.626,3.09c3.024,0.227,6.07,0,9.041,0.648
	c-0.162-0.206-0.314-0.422-0.475-0.626c-3.284-4.299-6.848-8.371-10.241-12.585c-1.663-2.085-3.294-4.202-4.818-6.394
	c-1.599-2.301-3.024-4.732-3.867-7.421c-0.206-0.659,0.831-0.94,1.037-0.281c0.973,3.111,2.787,5.843,4.688,8.469
	c1.221,1.696,2.505,3.327,3.802,4.947c2.247-3.5,2.7-8.014,1.047-11.861c-0.27-0.626,0.66-1.177,0.929-0.54
	c1.847,4.31,1.415,9.409-1.253,13.297c0.389,0.486,0.778,0.972,1.177,1.458c5.466,6.644,11.266,13.233,15.242,20.879
	c0.853-2.289,2.647-4.126,3.652-6.362c1.555-3.478,0.237-7.323-0.93-10.693c-0.227-0.659,0.81-0.94,1.037-0.292
	c1.188,3.425,2.43,7.259,1.102,10.834c-1.047,2.82-3.554,4.947-4.158,7.939c0.691,1.426,1.318,2.884,1.858,4.396
	C993.297,799.075,994.02,806.528,993.75,813.97z"/><path fill="#FFF" d="M968.193,813.97h-1.103c-0.625-3.003-1.792-5.887-3.619-8.372c-0.356-0.486-0.755-0.929-1.156-1.382
	c-0.086,0.032-0.183,0.043-0.291,0.021c-1.987-0.464-3.748,1.091-5.519,1.718c-1.782,0.627-3.737,0.454-5.434-0.356
	c-0.625-0.291-0.075-1.22,0.541-0.918c1.804,0.854,3.748,0.703,5.509-0.151c1.35-0.648,2.689-1.404,4.158-1.426
	c-1.523-1.545-3.24-2.906-5.044-4.105c-2.971-1.998-6.169-3.64-9.289-5.379c-1.567-0.875-3.165-1.75-4.635-2.787
	c-1.134-0.789-2.171-1.782-2.451-3.186c-0.142-0.669,0.895-0.961,1.026-0.281c0.378,1.815,2.268,2.787,3.716,3.662
	c1.825,1.102,3.704,2.117,5.574,3.143c0.14,0.087,0.281,0.162,0.432,0.238c0.335-2.193,0.075-4.43-0.702-6.503
	c-0.238-0.647,0.8-0.929,1.037-0.291c0.853,2.29,1.07,4.741,0.691,7.15c-0.011,0.065-0.043,0.119-0.086,0.173
	c5.4,3.014,10.856,6.459,14.032,11.914C966.886,809.098,967.707,811.496,968.193,813.97z"/><path fill="#FFF" d="M1081.439,765.967c-0.399,1.501-1.988,2.193-3.305,2.711c-1.598,0.616-3.316,0.94-5.023,0.994
	c-0.021,0-0.043-0.01-0.065-0.01c-0.573,0.724-1.167,1.414-1.771,2.106c-3.176,3.576-6.352,7.064-9.031,11.039
	c-2.57,3.802-4.764,7.853-6.567,12.065c-1.275,2.97-2.333,6.028-3.198,9.138c3.511-1.792,7.411-2.668,10.975-4.375
	c3.489-1.663,6.945-4.516,7.313-8.63c0.065-0.692,1.134-0.692,1.08,0c-0.379,4.158-3.478,7.27-7.01,9.138
	c-4.083,2.16-8.727,2.981-12.735,5.282c-0.724,2.808-1.275,5.671-1.653,8.544h-1.092c0.325-2.528,0.789-5.045,1.373-7.529
	c1.199-5.033,2.948-9.937,5.163-14.614c-0.011-0.032-0.033-0.054-0.044-0.086c-1.425-5.131-5.195-10.542-2.538-15.933
	c0.302-0.616,1.232-0.075,0.929,0.54c-2.29,4.635,0.81,9.603,2.323,14.076c1.544-3.09,3.295-6.06,5.26-8.902
	c1.21-1.739,2.506-3.434,3.867-5.065h-0.011c-1.761-4.029-2.301-8.447-1.556-12.78c0.119-0.68,1.156-0.388,1.037,0.282
	c-0.681,3.888-0.216,7.939,1.307,11.59c1.426-1.663,2.927-3.262,4.374-4.915c3.144-3.586,6.103-7.788,6.309-12.724
	c0.021-0.691,1.102-0.691,1.069,0c-0.162,3.996-1.977,7.496-4.31,10.64c1.209-0.108,2.398-0.357,3.543-0.756
	c1.037-0.379,2.635-0.908,2.96-2.107C1080.586,765.016,1081.623,765.298,1081.439,765.967z"/><path fill="#FFF" d="M1102.794,799.657c-2.57,0.227-5.109,0.843-7.529,1.782c-0.109,0.141-0.281,0.205-0.453,0.194
	c-0.465,0.195-0.951,0.379-1.416,0.594c-2.084,0.993-4.039,2.247-5.832,3.705c3.317,0.27,6.535,1.155,9.516,2.625
	c0.617,0.313,0.076,1.232-0.539,0.929c-3.067-1.512-6.417-2.387-9.82-2.549c-0.097,0-0.183-0.033-0.248-0.075
	c-2.236,2.019-4.169,4.373-5.639,7.02c-0.01,0.033-0.032,0.054-0.043,0.086h-1.199c0.497-0.951,1.027-1.88,1.642-2.776
	c1.642-2.387,3.64-4.526,5.908-6.32c2.193-1.739,4.624-3.154,7.194-4.212c0.065-2.344,0.498-4.677,1.307-6.881
	c0.238-0.638,1.275-0.357,1.037,0.292c-0.734,1.988-1.145,4.071-1.253,6.178c2.366-0.865,4.84-1.437,7.367-1.664
	C1103.486,798.534,1103.486,799.603,1102.794,799.657z"/></svg>